<?xml version="1.0" encoding="UTF-8" standalone="no"?>
<svg
   xmlns:dc="http://purl.org/dc/elements/1.1/"
   xmlns:cc="http://creativecommons.org/ns#"
   xmlns:rdf="http://www.w3.org/1999/02/22-rdf-syntax-ns#"
   xmlns:svg="http://www.w3.org/2000/svg"
   xmlns="http://www.w3.org/2000/svg"
   viewBox="0 0 3779.5332 3779.52"
   height="3779.52"
   width="3779.5332"
   xml:space="preserve"
   id="svg2"
   version="1.1"><metadata
     id="metadata8"><rdf:RDF><cc:Work
         rdf:about=""><dc:format>image/svg+xml</dc:format><dc:type
           rdf:resource="http://purl.org/dc/dcmitype/StillImage" /></cc:Work></rdf:RDF></metadata><defs
     id="defs6" /><g
     transform="matrix(1.3333333,0,0,-1.3333333,0,3779.52)"
     id="g10"><g
       transform="scale(0.1)"
       id="g12"><g
         transform="scale(1.71845)"
         id="g14"><path
           id="path16"
           style="fill:#ffffff;fill-opacity:1;fill-rule:nonzero;stroke:none"
           d="M 195.315,8247.65 C 195.315,12694.9 3800.4,16300 8247.65,16300 12694.8,16300 16300,12694.9 16300,8247.65 16300,3800.39 12694.8,195.29 8247.65,195.29 3800.4,195.29 195.315,3800.39 195.315,8247.65" /></g><g
         transform="scale(1.72189)"
         id="g18"><path
           id="path20"
           style="fill:#ee2722;fill-opacity:1;fill-rule:nonzero;stroke:none"
           d="M 8231.19,16235 C 3817.89,16235 227.414,12644.5 227.414,8231.19 227.414,3817.9 3817.89,227.423 8231.19,227.423 12644.5,227.423 16235,3817.9 16235,8231.19 16235,12644.5 12644.5,16235 8231.19,16235 Z m 0,-16072.563 c -4449.12,0 -8068.75,3619.633 -8068.75,8068.753 0,4449.11 3619.63,8068.71 8068.75,8068.71 4449.11,0 8068.81,-3619.6 8068.81,-8068.71 0,-4449.12 -3619.7,-8068.753 -8068.81,-8068.753" /></g><g
         transform="scale(1.73902)"
         id="g22"><path
           id="path24"
           style="fill:#ee2722;fill-opacity:1;fill-rule:nonzero;stroke:none"
           d="m 8150.11,15914.2 c -4281.14,0 -7764.096,-3482.9 -7764.096,-7764.09 0,-4281.15 3482.956,-7764.087 7764.096,-7764.087 4281.19,0 7764.19,3482.937 7764.19,7764.087 0,4281.19 -3483,7764.09 -7764.19,7764.09 z M 8150.11,0 C 3656.14,0 0,3656.14 0,8150.11 c 0,4493.99 3656.14,8150.09 8150.11,8150.09 4493.99,0 8150.19,-3656.1 8150.19,-8150.09 C 16300.3,3656.14 12644.1,0 8150.11,0" /></g><g
         transform="scale(1.64937)"
         id="g26"><path
           id="path28"
           style="fill:#ee2722;fill-opacity:1;fill-rule:nonzero;stroke:none"
           d="m 8627,15859 c -4006.44,0 -7265.94,-3259.4 -7265.94,-7265.89 0,-4006.44 3259.5,-7266 7265.94,-7266 4006.5,0 7266,3259.56 7266,7266 0,4006.49 -3259.5,7265.89 -7266,7265.89 z M 8627,920.111 C 4396.13,920.111 954.063,4362.22 954.063,8593.11 954.063,12824 4396.13,16266 8627,16266 c 4230.9,0 7673,-3442 7673,-7672.89 0,-4230.89 -3442.1,-7672.999 -7673,-7672.999" /></g><g
         transform="scale(1.46018)"
         id="g30"><path
           id="path32"
           style="fill:#ee2722;fill-opacity:1;fill-rule:nonzero;stroke:none"
           d="M 16300,5914.25 C 14988.9,3649.06 12539.4,2125.21 9733.91,2125.21 6917.96,2125.21 4460.56,3660.5 3153.17,5939.66 L 16300,5914.25" /></g><g
         transform="scale(1.54866)"
         id="g34"><path
           id="path36"
           style="fill:#ee2722;fill-opacity:1;fill-rule:nonzero;stroke:none"
           d="m 3019.53,12783.3 c 1243.87,2104.9 3536.15,3516.7 6158.29,3516.7 2625.38,0 4920.28,-1415.4 6162.98,-3524.8 l -12321.27,8.1" /></g><g
         transform="scale(1.46666)"
         id="g38"><path
           id="path40"
           style="fill:#231f20;fill-opacity:1;fill-rule:nonzero;stroke:none"
           d="m 3646.53,7695.39 c -171.63,0 -505.37,0 -505.37,0 v 1315.92 c 0,0 257.45,9.55 505.37,0 247.92,-9.54 572.13,-305.18 553.06,-667.5 -19.08,-362.32 -324.21,-648.42 -553.06,-648.42 z m -505.37,2679.41 c 0,0 276.83,-9.5 429.09,0 152.56,9.6 343.27,-123.9 333.74,-352.8 -9.54,-228.77 -190.71,-362.27 -352.81,-362.27 -162.1,0 -410.02,-9.55 -410.02,-9.55 z m 12992.04,-81 c -89,64.4 -412.9,195.8 -786.7,314.7 -615,195.5 -1091.8,343.2 -1902.3,491 -152.8,27.9 -205,158.9 -52.5,267 443.4,314.7 915.4,405.3 1115.7,438.6 43.2,7.3 171.6,-76.2 328.9,-181.1 79.8,-53.3 119.2,-33.4 190.7,14.3 75.8,50.5 50.8,150.1 57.2,147.8 157.4,-57.2 292.3,-278.6 271.8,-219.3 -81.1,233.6 -230.8,299.4 -224.1,300.3 166.9,23.9 185,95.9 176.5,152.6 -19.1,124 -157.9,190.9 -133.5,252.7 42.8,109.6 -23.9,271.8 -228.9,390.9 -81.3,47.2 -119.2,81.1 -76.3,138.3 59.8,79.8 81,138.3 133.5,205 42.9,38.2 -116.6,17.7 -186,-28.6 -1428.2,-952.1 -2731.8,-944 -3323,-953.5 -591.2,-9.6 -2591.16,149.7 -3537.67,200.2 -1249.14,66.8 -1792.66,38.2 -3051.33,-171.6 -1287.98,-214.7 -2669.9,-810.5 -2812.93,-1058.4 -83.36,-144.5 9.53,-228.9 143.03,-181.2 178.93,63.9 139.38,264.1 238.38,314.7 429.09,219.2 871,429.7 2107.32,676.9 1239.6,248 2412.46,209.8 3118.08,114.5 123.2,-16.7 133.5,-104.9 47.66,-124 -436.03,-96.9 -820.03,-362.3 -1153.78,-553 -155.54,-88.9 -419.56,-76.3 -476.76,-28.7 -42.73,35.7 -125.98,97.3 -181.18,38.2 -133.49,-143 -410.02,-238.3 -495.83,-305.1 -177.64,-138.2 -991.69,-600.7 -991.69,-600.7 -114.42,352.7 -457.7,629.3 -896.32,629.3 -438.55,0 -991.68,0 -991.68,0 V 7066.07 c 0,0 524.63,13.57 991.68,0 657.94,-19.09 1239.6,610.3 1249.13,1239.62 11.85,782.39 -572.52,1077.96 -562.58,1087.03 343.27,314.66 256.44,659.08 266.99,667.48 467.23,371.9 1048.89,629.4 1315.88,638.8 266.99,9.6 286.06,-9.4 867.72,-47.6 839.28,-55.1 1544.76,390.9 1582.87,324.2 18.89,-33.2 -76.02,-276.8 85.84,-133.5 333.69,295.5 834.35,362.4 1149.01,362.4 314.67,0 328.98,9.4 643.66,-95.4 314.6,-104.9 625.7,-303.8 1296.8,-343.3 405.3,-23.8 947.2,232.5 910.7,128.7 -28.7,-81 -4.8,-200.2 247.9,-200.2 319.4,0 662.6,19 1039.3,-9.5 376.7,-28.7 1091.8,-162.2 1740.2,-310 249.1,-56.7 338.5,-66.7 419.6,-138.2 35.6,-31.4 71.5,-104.9 128.7,-128.7 181.2,-81.1 268.1,-120.97 295.6,-95.4 71.5,66.8 42.9,181.2 -95.3,281.3" /></g><path
         id="path42"
         style="fill:#231f20;fill-opacity:1;fill-rule:nonzero;stroke:none"
         d="m 7949.44,14726.9 h 2601.26 v -895.1 H 8816.52 V 12573.2 H 10550.7 V 11762 H 8844.49 v -531.4 h 1706.21 v -867.1 H 7949.44 V 11762 h -447.52 v 811.2 h 447.52 v 2153.7" /><path
         id="path44"
         style="fill:#231f20;fill-opacity:1;fill-rule:nonzero;stroke:none"
         d="m 14007.7,12409.1 -422.3,527.7 -643.3,-503.5 56,-97.9 h -367.4 v 1468.5 h 1304.4 c 386.1,0 699.2,-313.1 699.2,-699.3 0,-361.7 -274.5,-659.2 -626.6,-695.5 z m 1521.7,723.5 c 0,911.4 -738.9,1594.3 -1650.3,1594.3 h -2111.7 v -4363.4 h 863.3 v 1118.8 h 965 l 923,-1230.7 675,503.5 -615.3,853.1 c 517.4,209.8 951,845.5 951,1524.4" /><g
         transform="scale(1.53015)"
         id="g46"><path
           id="path48"
           style="fill:#231f20;fill-opacity:1;fill-rule:nonzero;stroke:none"
           d="m 14874.2,7284.72 c -499.8,0 -904.8,405.13 -904.8,904.82 0,499.75 405,904.81 904.8,904.81 499.7,0 904.9,-405.06 904.9,-904.81 0,-499.69 -405.2,-904.82 -904.9,-904.82 z m 0,2330.63 c -787.5,0 -1425.8,-638.31 -1425.8,-1425.81 0,-787.44 638.3,-1425.81 1425.8,-1425.81 787.4,0 1425.8,638.37 1425.8,1425.81 0,787.5 -638.4,1425.81 -1425.8,1425.81" /></g><g
         transform="scale(1.22389)"
         id="g50"><path
           id="path52"
           style="fill:#231f20;fill-opacity:1;fill-rule:nonzero;stroke:none"
           d="m 15845.1,11030.3 c -205.4,209.7 -491.7,339.8 -808.3,339.8 -624.8,0 -1131.3,-506.5 -1131.3,-1131.3 0,-624.7 506.5,-1131.2 1131.3,-1131.2 287.6,0 551.7,111.29 751.3,288.1 l 429.1,-492.61 c -314.5,-278.05 -727.8,-446.85 -1180.4,-446.85 -984.5,0 -1782.7,798.11 -1782.7,1782.56 0,984.5 798.2,1782.6 1782.7,1782.6 493.7,0 940.5,-200.6 1263.2,-524.9 l -455.6,-459.9 0.7,-6.3" /></g></g></g></svg>